{
  "accessors": [
    {
      "bufferView": 2,
      "componentType": 5126,
      "count": 6009,
      "max": [
        4.541758060455322,
        4.541758060455322,
        0.9256439805030823
      ],
      "min": [
        -4.541757106781006,
        -4.541758060455322,
        -0.010931000113487244
      ],
      "type": "VEC3"
    },
    {
      "bufferView": 2,
      "byteOffset": 72108,
      "componentType": 5126,
      "count": 6009,
      "max": [
        0.7421343326568604,
        0.7421343326568604,
        1.0
      ],
      "min": [
        -0.7421343326568604,
        -0.7421343326568604,
        0.6700806617736816
      ],
      "type": "VEC3"
    },
    {
      "bufferView": 1,
      "componentType": 5126,
      "count": 6009,
      "max": [
        1.0,
        0.9256439805030823
      ],
      "min": [
        0.0,
        -0.011723999865353107
      ],
      "type": "VEC2"
    },
    {
      "bufferView": 0,
      "componentType": 5125,
      "count": 34944,
      "type": "SCALAR"
    }
  ],
  "asset": {
    "extras": {
      "author": "andrejpustovojtenko7 (https://sketchfab.com/andrejpustovojtenko7)",
      "license": "CC-BY-4.0 (http://creativecommons.org/licenses/by/4.0/)",
      "source": "https://sketchfab.com/3d-models/plate-52e04e796c7d4c47911cd7dff053fa73",
      "title": "Plate"
    },
    "generator": "Sketchfab-10.82.0",
    "version": "2.0"
  },
  "bufferViews": [
    {
      "buffer": 0,
      "byteLength": 139776,
      "name": "floatBufferViews",
      "target": 34963
    },
    {
      "buffer": 0,
      "byteLength": 48072,
      "byteOffset": 139776,
      "byteStride": 8,
      "name": "floatBufferViews",
      "target": 34962
    },
    {
      "buffer": 0,
      "byteLength": 144216,
      "byteOffset": 187848,
      "byteStride": 12,
      "name": "floatBufferViews",
      "target": 34962
    }
  ],
  "buffers": [
    {
      "byteLength": 332064,
      "uri": "scene.bin"
    }
  ],
  "materials": [
    {
      "doubleSided": true,
      "name": "None",
      "pbrMetallicRoughness": {
        "baseColorFactor": [
          0.56074397,
          0.56074397,
          0.56074397,
          1.0
        ],
        "metallicFactor": 0.0,
        "roughnessFactor": 0.6217033564000001
      }
    }
  ],
  "meshes": [
    {
      "name": "Object_0",
      "primitives": [
        {
          "attributes": {
            "NORMAL": 1,
            "POSITION": 0,
            "TEXCOORD_0": 2
          },
          "indices": 3,
          "material": 0,
          "mode": 4
        }
      ]
    }
  ],
  "nodes": [
    {
      "children": [
        1
      ],
      "matrix": [
        1.0,
        0.0,
        0.0,
        0.0,
        0.0,
        2.220446049250313e-16,
        -1.0,
        0.0,
        0.0,
        1.0,
        2.220446049250313e-16,
        0.0,
        0.0,
        0.0,
        0.0,
        1.0
      ],
      "name": "Sketchfab_model"
    },
    {
      "children": [
        2
      ],
      "name": "untitled11.obj.cleaner.materialmerger.gles"
    },
    {
      "mesh": 0,
      "name": "Object_2"
    }
  ],
  "scene": 0,
  "scenes": [
    {
      "name": "Sketchfab_Scene",
      "nodes": [
        0
      ]
    }
  ]
}
