{
  "accessors": [
    {
      "bufferView": 1,
      "componentType": 5126,
      "count": 6656,
      "max": [
        1.7382757663726807,
        2.7952632904052734,
        3.4000005722045898
      ],
      "min": [
        -1.7382757663726807,
        -1.7382757663726807,
        0.053482718765735626
      ],
      "type": "VEC3"
    },
    {
      "bufferView": 1,
      "byteOffset": 79872,
      "componentType": 5126,
      "count": 6656,
      "max": [
        0.99902540445327759,
        0.99957168102264404,
        1
      ],
      "min": [
        -0.9975430965423584,
        -0.99729162454605103,
        -1
      ],
      "type": "VEC3"
    },
    {
      "bufferView": 0,
      "componentType": 5125,
      "count": 39936,
      "max": [
        6655
      ],
      "min": [
        0
      ],
      "type": "SCALAR"
    }
  ],
  "asset": {
    "extras": {
      "author": "Isuru Prabath (https://sketchfab.com/ispra)",
      "license": "CC-BY-4.0 (http://creativecommons.org/licenses/by/4.0/)",
      "source": "https://sketchfab.com/models/9b1eb050635d46698d5dcd18ccf6f7b2",
      "title": "Coffee Cup"
    },
    "generator": "Sketchfab-3.31.1",
    "version": "2.0"
  },
  "bufferViews": [
    {
      "buffer": 0,
      "byteLength": 159744,
      "byteOffset": 0,
      "name": "floatBufferViews",
      "target": 34963
    },
    {
      "buffer": 0,
      "byteLength": 159744,
      "byteOffset": 159744,
      "byteStride": 12,
      "name": "floatBufferViews",
      "target": 34962
    }
  ],
  "buffers": [
    {
      "byteLength": 319488,
      "uri": "scene.bin"
    }
  ],
  "materials": [
    {
      "doubleSided": true,
      "emissiveFactor": [
        0,
        0,
        0
      ],
      "name": "Material.002",
      "pbrMetallicRoughness": {
        "baseColorFactor": [
          0.80000000000000004,
          0.80000000000000004,
          0.80000000000000004,
          1
        ],
        "metallicFactor": 0,
        "roughnessFactor": 0.95770514949999996
      }
    }
  ],
  "meshes": [
    {
      "name": "Circle_Material.002_0",
      "primitives": [
        {
          "attributes": {
            "NORMAL": 1,
            "POSITION": 0
          },
          "indices": 2,
          "material": 0,
          "mode": 4
        }
      ]
    }
  ],
  "nodes": [
    {
      "children": [
        1
      ],
      "name": "RootNode (gltf orientation matrix)",
      "rotation": [
        -0.70710678118654746,
        -0,
        -0,
        0.70710678118654757
      ]
    },
    {
      "children": [
        2
      ],
      "name": "RootNode (model correction matrix)"
    },
    {
      "children": [
        3
      ],
      "matrix": [
        1,
        0,
        0,
        0,
        0,
        0,
        1,
        0,
        0,
        -1,
        0,
        0,
        0,
        0,
        0,
        1
      ],
      "name": "d7bb94ae1da04aeea22674ce289c49b8.fbx"
    },
    {
      "children": [
        4
      ],
      "name": "RootNode"
    },
    {
      "children": [
        5
      ],
      "matrix": [
        100,
        0,
        0,
        0,
        0,
        -2.8212996916465727e-05,
        99.999999999996021,
        0,
        0,
        -99.999999999996021,
        -2.8212996916465727e-05,
        0,
        -126.85424041748047,
        346.60134887695312,
        507.46246337890625,
        1
      ],
      "name": "Circle"
    },
    {
      "mesh": 0,
      "name": "Circle_Material.002_0"
    }
  ],
  "scene": 0,
  "scenes": [
    {
      "name": "OSG_Scene",
      "nodes": [
        0
      ]
    }
  ]
}

